P2
# CREATOR: GIMP PNM Filter Version 1.1
31 31
255
0
0
0
0
0
0
0
0
0
0
1
2
4
6
11
17
19
13
9
7
3
0
0
0
0
0
0
0
0
0
0
0
0
0
0
0
0
0
1
1
2
2
4
10
27
48
72
89
89
63
26
3
0
0
0
0
0
0
0
0
0
0
0
0
0
0
0
0
2
4
6
14
19
37
64
100
133
171
198
200
159
92
30
1
0
0
0
0
0
0
0
0
0
0
0
0
0
2
8
9
11
27
55
91
131
170
204
230
243
249
248
236
188
107
34
1
0
0
0
0
0
0
0
0
0
0
0
2
8
12
29
59
102
146
183
217
241
251
254
254
254
253
254
244
197
119
44
3
0
0
0
0
0
0
0
0
0
3
13
22
47
91
146
199
234
248
252
253
254
254
254
254
254
254
252
250
210
127
45
4
0
0
0
0
0
0
1
3
13
32
74
133
192
229
246
251
253
254
254
254
254
254
254
254
254
254
253
252
213
126
44
4
0
0
0
0
0
3
8
32
88
156
216
248
254
253
254
254
254
254
254
254
255
254
254
254
254
254
253
252
205
116
32
0
0
0
0
0
7
16
68
164
232
250
253
254
254
254
254
254
254
254
254
254
254
254
254
254
254
254
250
248
193
94
23
2
0
0
0
9
32
104
208
253
253
254
254
254
254
254
254
254
254
254
254
254
254
254
254
254
254
253
254
240
170
73
11
4
1
0
10
43
123
218
252
254
254
254
254
254
254
254
254
254
254
254
254
254
254
254
254
254
254
253
251
229
140
51
11
2
1
10
45
125
218
252
254
254
254
253
254
254
254
254
254
254
254
254
254
254
254
254
254
254
254
254
251
204
116
32
3
2
10
46
126
218
252
253
254
254
254
254
254
254
254
254
254
254
254
254
254
254
254
254
254
254
254
253
243
179
74
14
4
10
46
127
220
252
253
254
254
254
254
254
254
254
254
254
254
254
254
254
254
254
254
254
254
254
254
253
220
118
34
2
9
42
121
216
252
253
254
252
254
254
254
254
254
254
254
254
254
254
254
254
254
254
254
254
254
254
254
232
135
40
1
8
37
113
213
252
254
254
253
253
254
254
254
254
254
254
254
254
254
254
254
254
254
254
254
254
254
253
221
117
29
2
7
31
104
210
252
254
254
254
254
254
254
254
254
254
254
254
254
254
254
254
254
254
254
254
254
253
247
188
78
13
2
6
26
93
200
250
254
254
253
254
254
254
254
254
254
254
254
254
254
254
254
254
254
254
254
253
251
222
141
43
5
2
6
20
80
182
244
253
254
254
253
254
254
254
254
254
254
254
254
254
254
254
254
254
254
253
252
247
185
93
22
2
1
3
11
62
160
231
249
253
254
253
253
254
254
254
254
254
254
254
254
254
254
254
254
254
253
251
230
140
52
12
3
1
1
6
44
137
215
247
252
254
254
254
254
254
254
254
254
254
254
254
254
254
254
254
254
253
245
193
95
21
7
2
0
1
3
30
115
204
250
250
254
254
254
254
254
254
254
254
254
254
254
254
254
254
254
254
254
226
136
51
10
3
0
0
1
2
18
87
183
250
253
252
254
254
254
254
254
254
254
254
254
254
254
254
254
253
251
244
179
75
17
5
0
0
0
1
1
12
54
144
233
255
253
252
253
254
254
254
254
254
254
254
254
254
254
253
251
251
201
111
28
3
2
0
0
0
1
2
8
26
85
167
220
240
244
249
251
252
252
253
253
254
254
254
254
254
250
252
225
136
52
12
2
0
0
0
0
0
1
4
9
28
74
129
173
202
224
237
246
248
249
249
250
252
252
253
251
253
230
162
72
18
6
0
0
0
0
0
0
0
1
3
8
22
49
79
109
137
161
184
202
215
226
233
239
240
244
244
230
173
89
31
9
2
0
0
0
0
0
0
0
0
0
2
7
10
17
33
53
72
94
116
136
152
164
173
178
186
182
153
96
39
14
5
0
0
0
0
0
0
0
0
0
0
0
1
3
4
8
13
19
25
33
44
54
60
66
72
75
69
48
29
16
7
1
0
0
0
0
0
0
0
0
0
0
0
0
0
0
1
2
2
4
5
8
10
12
13
14
14
11
6
5
5
2
0
0
0
0
0
0
0
0
0
0
0
0
0
0
0
0
0
0
1
2
5
6
6
6
5
4
3
3
3
2
1
0
0
0
0
0
0
0
